<?xml version="1.0" encoding="UTF-8"?>
<svg width="86px" height="98px" viewBox="0 0 86 98" version="1.1" xmlns="http://www.w3.org/2000/svg" xmlns:xlink="http://www.w3.org/1999/xlink">
    <!-- Generator: sketchtool 64 (101010) - https://sketch.com -->
    <title>B1BAC308-A77F-42F2-9F08-9FC557749A83</title>
    <desc>Created with sketchtool.</desc>
    <defs>
        <path d="M44.631874,8.50456386 L25.2838616,0.364908433 C24.1275893,-0.121516069 22.8012138,-0.121636144 21.6449414,0.364908433 L2.29692905,8.50456386 C0.91095188,9.08764887 0.0218142102,10.4420968 0.0317435902,11.9551639 L0.181069865,34.5098432 C0.225771115,41.2830432 3.62926471,47.5137436 9.28522451,51.1769968 C23.5278773,60.4012912 22.6672292,59.9973583 23.4643419,59.9973583 C24.2612162,59.9973583 23.4009257,60.4012912 37.6434593,51.1769968 C37.6434593,51.1254846 46.6710854,46.0616746 46.7477332,34.5098432 L46.8970634,11.9554041 C46.9072272,10.4423369 46.0180895,9.08788902 44.631874,8.50456386 Z" id="path-1"></path>
        <filter x="-80.0%" y="-37.5%" width="260.0%" height="225.0%" filterUnits="objectBoundingBox" id="filter-2">
            <feOffset dx="0" dy="15" in="SourceAlpha" result="shadowOffsetOuter1"></feOffset>
            <feGaussianBlur stdDeviation="10" in="shadowOffsetOuter1" result="shadowBlurOuter1"></feGaussianBlur>
            <feColorMatrix values="0 0 0 0 0.933333333   0 0 0 0 0.556862745   0 0 0 0 0.392156863  0 0 0 0.227600524 0" type="matrix" in="shadowBlurOuter1"></feColorMatrix>
        </filter>
        <path d="M46.8786184,14.7513543 L46.8971806,11.9554041 C46.9072272,10.4422168 46.0180895,9.08776894 44.631874,8.50456386 L25.2838616,0.364908433 C24.1275893,-0.121516069 22.8012138,-0.121636144 21.6449414,0.364908433 L2.29692905,8.50456386 C0.91095188,9.08764887 0.0218142102,10.4420968 0.0317435902,11.9551639 L0.0412443536,13.3846588 C3.3894276,13.9245167 7.31562782,14.8990468 11.883142,16.5092548 C26.3806515,21.6203744 39.1265872,19.2376027 46.8786184,14.7513543 Z" id="path-3"></path>
        <filter x="-80.0%" y="-116.0%" width="260.0%" height="486.8%" filterUnits="objectBoundingBox" id="filter-4">
            <feOffset dx="0" dy="15" in="SourceAlpha" result="shadowOffsetOuter1"></feOffset>
            <feGaussianBlur stdDeviation="10" in="shadowOffsetOuter1" result="shadowBlurOuter1"></feGaussianBlur>
            <feColorMatrix values="0 0 0 0 0.933333333   0 0 0 0 0.556862745   0 0 0 0 0.392156863  0 0 0 0.227600524 0" type="matrix" in="shadowBlurOuter1"></feColorMatrix>
        </filter>
        <path d="M37.8881837,14.4127424 L24.9257748,8.95940859 C23.9971808,8.56880407 22.9318606,8.56892415 22.002909,8.95940859 L9.04050007,14.4127424 C7.87540668,14.9030093 7.12788257,16.0418022 7.13615766,17.3127978 L7.20715279,28.869072 C10.7104196,29.3827536 14.521231,30.2853586 18.5281318,31.7618029 C25.5385991,34.3448599 33.1564074,34.9709318 39.6682471,34.3459406 C39.7005512,33.7820676 39.6831476,35.1984742 39.7928857,17.3139986 C39.8012781,16.0419222 39.0536347,14.9031294 37.8881837,14.4127424 Z" id="path-5"></path>
        <filter x="-114.8%" y="-86.9%" width="329.7%" height="389.5%" filterUnits="objectBoundingBox" id="filter-6">
            <feOffset dx="0" dy="15" in="SourceAlpha" result="shadowOffsetOuter1"></feOffset>
            <feGaussianBlur stdDeviation="10" in="shadowOffsetOuter1" result="shadowBlurOuter1"></feGaussianBlur>
            <feColorMatrix values="0 0 0 0 0.933333333   0 0 0 0 0.556862745   0 0 0 0 0.392156863  0 0 0 0.227600524 0" type="matrix" in="shadowBlurOuter1"></feColorMatrix>
        </filter>
        <path d="M38.8041422,15.246064 C38.9273984,14.706086 39.4573764,15.0729156 24.9257748,8.95940859 C23.9971808,8.56880407 22.9318606,8.56892415 22.002909,8.95940859 L9.04050007,14.4127424 C7.87540668,14.9030093 7.12788257,16.0418022 7.13615766,17.3127978 L7.17151099,23.0677604 C19.1240293,24.7890379 36.4808692,25.4332412 38.8041422,15.246064 Z" id="path-7"></path>
        <filter x="-118.3%" y="-146.1%" width="336.6%" height="586.9%" filterUnits="objectBoundingBox" id="filter-8">
            <feOffset dx="0" dy="15" in="SourceAlpha" result="shadowOffsetOuter1"></feOffset>
            <feGaussianBlur stdDeviation="10" in="shadowOffsetOuter1" result="shadowBlurOuter1"></feGaussianBlur>
            <feColorMatrix values="0 0 0 0 0.933333333   0 0 0 0 0.556862745   0 0 0 0 0.392156863  0 0 0 0.227600524 0" type="matrix" in="shadowBlurOuter1"></feColorMatrix>
        </filter>
    </defs>
    <g id="1200" stroke="none" stroke-width="1" fill="none" fill-rule="evenodd">
        <g id="01_Home_1200-3" transform="translate(-658.000000, -4869.000000)">
            <g id="4-(Our-Pricing)" transform="translate(215.000000, 3884.000000)">
                <g id="Enjoy-the-Tend-..." transform="translate(0.000000, 989.000000)">
                    <g id="shield" transform="translate(462.000000, 0.000000)">
                        <g id="Path">
                            <use fill="black" fill-opacity="1" filter="url(#filter-2)" xlink:href="#path-1"></use>
                            <use fill="#EE8E64" fill-rule="evenodd" xlink:href="#path-1"></use>
                        </g>
                        <path d="M44.631874,8.50456386 L25.2838616,0.364908433 C24.1275893,-0.121516069 22.8012138,-0.121636144 21.6449414,0.364908433 L2.29692905,8.50456386 C0.91095188,9.08764887 0.0218142102,10.4420968 0.0317435902,11.9551639 C0.191202148,36.03828 0.0594824637,35.741214 0.562758941,38.2943723 C5.60112627,38.6507554 11.9267704,38.4310178 19.6348156,37.0059657 C31.0351841,34.8982863 39.6887501,28.4957583 46.8156791,24.2647898 L46.8971806,11.9554041 C46.9072272,10.4423369 46.0180895,9.08788902 44.631874,8.50456386 L44.631874,8.50456386 Z" id="Path" fill="#FEA178"></path>
                        <g id="Path">
                            <use fill="black" fill-opacity="1" filter="url(#filter-4)" xlink:href="#path-3"></use>
                            <use fill="#FFB291" fill-rule="evenodd" xlink:href="#path-3"></use>
                        </g>
                        <path d="M37.8881837,14.4127424 L24.9257748,8.95940859 C23.9971808,8.56880407 22.9318606,8.56892415 22.002909,8.95940859 L9.04050007,14.4127424 C7.87540668,14.9030093 7.12788257,16.0418022 7.13615766,17.3127978 L7.2362384,33.6251293 C7.26758888,38.3779446 9.65582768,42.7498814 13.6245835,45.3203305 C23.059289,51.4308357 22.6740238,51.3304347 23.4643419,51.3304347 C24.260501,51.3304347 23.8825072,51.4223104 33.3041003,45.3203305 C33.3041003,45.3941768 39.6399959,41.5576551 39.6926838,33.6241687 L39.7927685,17.3139986 C39.8012781,16.0419222 39.0536347,14.9031294 37.8881837,14.4127424 Z" id="Path" fill="#FEA178"></path>
                        <g id="Path">
                            <use fill="black" fill-opacity="1" filter="url(#filter-6)" xlink:href="#path-5"></use>
                            <use fill="#FFB291" fill-rule="evenodd" xlink:href="#path-5"></use>
                        </g>
                        <g id="Path">
                            <use fill="black" fill-opacity="1" filter="url(#filter-8)" xlink:href="#path-7"></use>
                            <use fill="#FFC7AF" fill-rule="evenodd" xlink:href="#path-7"></use>
                        </g>
                        <g id="Group" transform="translate(7.000000, 8.000000)" fill="#FFFFFF">
                            <path d="M15.002909,0.959528665 L2.04050007,6.41286245 C0.875406678,6.90312936 0.127882569,8.04192224 0.13615766,9.31291789 L0.2362384,25.6252494 C0.267588877,30.3780647 2.65582768,34.7500015 6.62458348,37.3204506 C16.059289,43.4309558 15.6740238,43.3305548 16.4643419,43.3305548 C17.260501,43.3305548 16.8825072,43.4224304 26.3041003,37.3204506 C26.3041003,37.3942968 32.6399959,33.5577752 32.6926838,25.6242888 L32.7927665,9.31411864 C32.8011589,8.04204232 32.0536347,6.90324943 30.8880645,6.41286245 L17.9257748,0.95940859 C16.9970616,0.568804071 15.9317414,0.568924147 15.002909,0.959528665 Z M30.4645207,8.59478023 L30.3559393,25.9692781 C30.3304613,29.7562288 28.3905356,33.2398806 25.1669747,35.2878393 C25.1803139,35.2878393 25.090274,35.3366096 16.4645874,40.8169454 L7.76206677,35.2879711 C4.53837246,33.2397488 2.59871347,29.7562288 2.57310213,25.9704644 L2.46452071,8.59478023 L16.4645874,2.81694541 L30.4645207,8.59478023 Z" id="Shape"></path>
                        </g>
                        <g id="check-(1)-2" transform="translate(18.000000, 25.000000)" fill="#FFFFFF" fill-rule="nonzero">
                            <g id="check-(1)">
                                <path d="M4.06258657,7.97420322 C3.7585572,7.97420322 3.45452778,7.85939099 3.22291741,7.63083957 L0.348394204,4.81581512 C-0.116131401,4.3576393 -0.116131401,3.61683218 0.348394204,3.15865636 C0.812702349,2.70048048 1.56320698,2.70048048 2.02773259,3.15865636 L4.06258657,5.14488679 L8.97239869,0.343631908 C9.43670684,-0.114543969 10.1872115,-0.114543969 10.6517371,0.343631908 C11.1160452,0.802022374 11.1160452,1.54261485 10.6517371,2.00100531 L4.90247326,7.63083957 C4.67086289,7.85939099 4.366616,7.97420322 4.06258657,7.97420322 Z" id="Path"></path>
                            </g>
                        </g>
                    </g>
                </g>
            </g>
        </g>
    </g>
</svg>