<?xml version="1.0" encoding="UTF-8"?>
<svg width="52px" height="49px" viewBox="0 0 52 49" version="1.1" xmlns="http://www.w3.org/2000/svg" xmlns:xlink="http://www.w3.org/1999/xlink">
    <!-- Generator: sketchtool 64 (101010) - https://sketch.com -->
    <title>FC8CC047-FC01-4359-9643-6F3D41DCB74D</title>
    <desc>Created with sketchtool.</desc>
    <g id="1200" stroke="none" stroke-width="1" fill="none" fill-rule="evenodd">
        <g id="01_Home_1200-3" transform="translate(-215.000000, -2269.000000)" fill-rule="nonzero">
            <g id="3-(Our-Services)" transform="translate(215.000000, 2030.000000)">
                <g id="1" transform="translate(0.000000, 239.000000)">
                    <g id="icon-Allied-Health-and-Nursing">
                        <path d="M37.1835547,0.0213221757 C32.7192734,0.0213221757 28.7163906,2.01433054 26,5.16673222 L23.967125,24.3996423 L26,48.9786778 C26,48.9786778 52,36.4046423 52,14.9760607 C52,6.71679289 45.3664453,0.0213221757 37.1835547,0.0213221757 Z" id="Path" fill="#EE8E64"></path>
                        <path d="M14.8164453,0.0213221757 C6.63355469,0.0213221757 0,6.71679289 0,14.9760607 C0,36.4046423 26,48.9786778 26,48.9786778 L26,5.16673222 C23.2836094,2.01433054 19.2807266,0.0213221757 14.8164453,0.0213221757 Z" id="Path" fill="#FFAC88"></path>
                        <path d="M26,11.4993159 L23.967125,24.3996423 L26,37.2999686 C33.0587969,37.2999686 38.7810312,31.5243243 38.7810312,24.3996423 C38.7810312,17.2749603 33.0587969,11.4993159 26,11.4993159 Z" id="Path" fill="#FFECE4"></path>
                        <path d="M13.2189688,24.3996423 C13.2189688,31.5243243 18.9412031,37.2999686 26,37.2999686 L26,11.4993159 C18.9412031,11.4993159 13.2189688,17.2749603 13.2189688,24.3996423 Z" id="Path" fill="#FFFFFF"></path>
                        <g id="Group-6" transform="translate(19.000000, 18.000000)">
                            <path d="M7,0.5 L7,0.5 L7,0.5 L7,13.5 C5.8954305,13.5 5,12.6045695 5,11.5 L5,2.5 C5,1.3954305 5.8954305,0.5 7,0.5 Z" id="Rectangle" fill="#FFAC88"></path>
                            <path d="M7,0.5 C8.1045695,0.5 9,1.3954305 9,2.5 L9,11.5 C9,12.6045695 8.1045695,13.5 7,13.5 L7,13.5 L7,13.5 L7,0.5 Z" id="Rectangle-Copy-24" fill="#EE8E64"></path>
                            <path d="M7,0 C8.1045695,-2.02906125e-16 9,0.8954305 9,2 L9,12 C9,13.1045695 8.1045695,14 7,14 C5.8954305,14 5,13.1045695 5,12 L5,2 C5,0.8954305 5.8954305,2.02906125e-16 7,0 Z" id="Rectangle-Copy-22" fill="#FFAC88" transform="translate(7.000000, 7.000000) rotate(-270.000000) translate(-7.000000, -7.000000) "></path>
                            <path d="M10.5,3.5 C11.6045695,3.5 12.5,4.3954305 12.5,5.5 L12.5,10.5 L12.5,10.5 L8.5,10.5 L8.5,5.5 C8.5,4.3954305 9.3954305,3.5 10.5,3.5 Z" id="Rectangle-Copy-23" fill="#EE8E64" transform="translate(10.500000, 7.000000) rotate(-270.000000) translate(-10.500000, -7.000000) "></path>
                        </g>
                    </g>
                </g>
            </g>
        </g>
    </g>
</svg>