<?xml version="1.0" encoding="UTF-8"?>
<svg width="48px" height="54px" viewBox="0 0 48 54" version="1.1" xmlns="http://www.w3.org/2000/svg" xmlns:xlink="http://www.w3.org/1999/xlink">
    <!-- Generator: sketchtool 64 (101010) - https://sketch.com -->
    <title>D7C3CD02-5CBE-4191-B8E6-A804BFE5FE6D</title>
    <desc>Created with sketchtool.</desc>
    <g id="1200" stroke="none" stroke-width="1" fill="none" fill-rule="evenodd">
        <g id="01_Home_1200-3" transform="translate(-580.000000, -2268.000000)" fill-rule="nonzero">
            <g id="3-(Our-Services)" transform="translate(215.000000, 2030.000000)">
                <g id="2" transform="translate(365.000000, 238.000000)">
                    <g id="icon-Carer-Support">
                        <path d="M39.2751606,2.27664844 C35.1467805,1.07082422 29.8661976,0 24.1312715,0 L22,23.7304688 L24.1312715,54 C37.8252444,52.0697109 48,40.4555977 48,26.7547852 L48,12.3906797 C43.7664192,10.4851758 40.5297955,6.78786328 39.2751606,2.27664844 L39.2751606,2.27664844 Z" id="Path" fill="#5ECEF4"></path>
                        <path d="M8.77282359,2.27664844 C7.51128856,6.78786328 4.25686436,10.4851758 0,12.3906797 L0,26.7547852 C0,40.4555977 10.230714,52.0697109 24,54 L24,0 C18.2335333,0 12.9239087,1.07082422 8.77282359,2.27664844 Z" id="Path" fill="#9EE2F8"></path>
                        <path d="M42.3364632,14.8718562 C39.5382183,12.8577275 37.2615617,10.1660216 35.7524587,7.08758426 L35.4154787,6.4002271 L34.6628614,6.22929139 C31.070414,5.41362615 27.5337359,5 24.1508264,5 L22,23.7358508 L24.1508264,49 L24.451379,48.9436592 C29.4680397,48.001812 34.0738986,45.3819671 37.4204882,41.5667416 C41.0185233,37.4650286 43,32.2150274 43,26.784098 L43,15.3493706 L42.3364632,14.8718562 Z" id="Path" fill="#4BC3EB"></path>
                        <path d="M13.4038024,6.22929139 L12.6451672,6.4002271 L12.3054927,7.08758426 C10.7844312,10.1659153 8.48946213,12.8576212 5.66884246,14.8719625 L5,15.3494769 L5,26.784098 C5,32.2151337 6.99732064,37.4650286 10.624234,41.5667416 C13.9974746,45.3819671 18.6401619,48.0017057 23.6970442,48.9436592 L24,49 L24,5 C20.5899324,5 17.0249751,5.41362615 13.4038024,6.22929139 L13.4038024,6.22929139 Z" id="Path" fill="#C0F0FF"></path>
                        <path d="M33.3492997,8.97297879 C30.2077241,8.32711857 27.1259921,8 24.1778748,8 L22,23.3139447 L24.1778748,45 C28.4211182,44.1575964 32.3073668,41.9704884 35.1490712,38.8190926 C38.2772636,35.3500023 40,30.9099227 40,26.316755 L40,16.6352391 C37.2517606,14.5677115 34.9729132,11.9423861 33.3492997,8.97297879 L33.3492997,8.97297879 Z" id="Path" fill="#DAEEF5"></path>
                        <path d="M14.7254047,8.97298154 C13.0836371,11.9423972 10.7790447,14.5677301 8,16.6352635 L8,26.3167021 C8,30.9099875 9.74211561,35.3500797 12.9054974,38.8190751 C15.7790584,41.9705845 19.7090239,44.157594 24,45 L24,8 C21.018719,8 17.9023203,8.32711949 14.7254047,8.97298154 Z" id="Path" fill="#FFFFFF"></path>
                        <g id="Group-6" transform="translate(17.000000, 19.000000)">
                            <path d="M7,0.5 L7,0.5 L7,0.5 L7,13.5 C5.8954305,13.5 5,12.6045695 5,11.5 L5,2.5 C5,1.3954305 5.8954305,0.5 7,0.5 Z" id="Rectangle" fill="#9EE2F8"></path>
                            <path d="M7,0.5 C8.1045695,0.5 9,1.3954305 9,2.5 L9,11.5 C9,12.6045695 8.1045695,13.5 7,13.5 L7,13.5 L7,13.5 L7,0.5 Z" id="Rectangle-Copy-24" fill="#5CB9D7"></path>
                            <path d="M7,0 C8.1045695,-2.02906125e-16 9,0.8954305 9,2 L9,12 C9,13.1045695 8.1045695,14 7,14 C5.8954305,14 5,13.1045695 5,12 L5,2 C5,0.8954305 5.8954305,2.02906125e-16 7,0 Z" id="Rectangle-Copy-22" fill="#9EE2F8" transform="translate(7.000000, 7.000000) rotate(-270.000000) translate(-7.000000, -7.000000) "></path>
                            <path d="M10.5,3.5 C11.6045695,3.5 12.5,4.3954305 12.5,5.5 L12.5,10.5 L12.5,10.5 L8.5,10.5 L8.5,5.5 C8.5,4.3954305 9.3954305,3.5 10.5,3.5 Z" id="Rectangle-Copy-23" fill="#5CB9D7" transform="translate(10.500000, 7.000000) rotate(-270.000000) translate(-10.500000, -7.000000) "></path>
                        </g>
                    </g>
                </g>
            </g>
        </g>
    </g>
</svg>