<?xml version="1.0" encoding="UTF-8"?>
<svg width="48px" height="43px" viewBox="0 0 48 43" version="1.1" xmlns="http://www.w3.org/2000/svg" xmlns:xlink="http://www.w3.org/1999/xlink">
    <!-- Generator: sketchtool 64 (101010) - https://sketch.com -->
    <title>F916185C-2828-4AB3-8C66-EC872BA703BC</title>
    <desc>Created with sketchtool.</desc>
    <g id="1200" stroke="none" stroke-width="1" fill="none" fill-rule="evenodd">
        <g id="01_Home_1200-3" transform="translate(-915.000000, -2271.000000)" fill-rule="nonzero">
            <g id="3-(Our-Services)" transform="translate(215.000000, 2030.000000)">
                <g id="3" transform="translate(700.000000, 241.000000)">
                    <g id="icon-Domestic-Assistance">
                        <polygon id="Path" fill="#EE8E64" points="47.8039688 12.3977285 23.9522885 1.7025894 21.689271 43.0081987 47.8039688 40.7547417"></polygon>
                        <polygon id="Path" fill="#FFAC88" points="0.100608187 12.3977285 0.100608187 40.7547417 23.9522885 43.0081987 23.9522885 1.7025894"></polygon>
                        <polygon id="Path" fill="#FFAE8A" points="23.9522885 0.0124966887 22.8207797 2.04619205 23.9522885 3.75384768 48 16 48 12.5"></polygon>
                        <polygon id="Path" fill="#FFCDB7" points="0 12.5 0 16 23.9522885 3.75384768 23.9522885 0.0124966887"></polygon>
                        <g id="Group-6" transform="translate(16.000000, 18.000000)">
                            <path d="M8,0.5 L8,0.5 L8,0.5 L8,15.5 C6.8954305,15.5 6,14.6045695 6,13.5 L6,2.5 C6,1.3954305 6.8954305,0.5 8,0.5 Z" id="Rectangle" fill="#FFF2ED"></path>
                            <path d="M8,0.5 C9.1045695,0.5 10,1.3954305 10,2.5 L10,13.5 C10,14.6045695 9.1045695,15.5 8,15.5 L8,15.5 L8,15.5 L8,0.5 Z" id="Rectangle-Copy-24" fill="#FFD4C1"></path>
                            <rect id="Rectangle-Copy-22" fill="#FFF2ED" transform="translate(8.000000, 8.000000) rotate(-270.000000) translate(-8.000000, -8.000000) " x="6" y="0" width="4" height="16" rx="2"></rect>
                            <path d="M12,4 C13.1045695,4 14,4.8954305 14,6 L14,12 L14,12 L10,12 L10,6 C10,4.8954305 10.8954305,4 12,4 Z" id="Rectangle-Copy-23" fill="#FFD4C1" transform="translate(12.000000, 8.000000) rotate(-270.000000) translate(-12.000000, -8.000000) "></path>
                        </g>
                    </g>
                </g>
            </g>
        </g>
    </g>
</svg>