<?xml version="1.0" encoding="UTF-8"?>
<svg width="59px" height="45px" viewBox="0 0 59 45" version="1.1" xmlns="http://www.w3.org/2000/svg" xmlns:xlink="http://www.w3.org/1999/xlink">
    <!-- Generator: sketchtool 64 (101010) - https://sketch.com -->
    <title>CA8804C3-A422-43DE-83EA-B52D9CE167D2</title>
    <desc>Created with sketchtool.</desc>
    <g id="1200" stroke="none" stroke-width="1" fill="none" fill-rule="evenodd">
        <g id="01_Home_1200-3" transform="translate(-215.000000, -2830.000000)" fill-rule="nonzero">
            <g id="3-(Our-Services)" transform="translate(215.000000, 2030.000000)">
                <g id="4" transform="translate(0.000000, 800.000000)">
                    <g id="icon-Gardening-and-Home-Maintenance">
                        <path d="M29.5,44.9508673 L55,44.9508673 C57.209139,44.9508673 59,43.1600063 59,40.9508673 L59,38.057602 L59,38.057602 L27.1934688,35.7598469 L29.5,44.9508673 Z" id="Path" fill="#5ECEF4"></path>
                        <path d="M0,38.057602 L0,40.9508673 C2.705415e-16,43.1600063 1.790861,44.9508673 4,44.9508673 L29.5,44.9508673 L29.5,44.9508673 L29.5,35.7598469 L0,38.057602 Z" id="Path" fill="#9EE2F8"></path>
                        <polygon id="Path" fill="#51C1E5" points="29.5 38.057602 59 38.057602 59 34.6137245 27.1934688 32.3159694"></polygon>
                        <polygon id="Path" fill="#83D1EA" points="29.5 32.3159694 0 34.6137245 0 38.057602 29.5 38.057602"></polygon>
                        <path d="M29.5,0.0491326531 L29.5,34.6137245 L59,34.6137245 L59,6.04913265 C59,2.73542415 56.3137085,0.0491326531 53,0.0491326531 L29.5,0.0491326531 L29.5,0.0491326531 Z" id="Path" fill="#5ECEF4"></path>
                        <path d="M29.5,0.0491326531 L6,0.0491326531 C2.6862915,0.0491326531 -1.29399067e-15,2.73542415 0,6.04913265 L0,34.6137245 L0,34.6137245 L29.5,34.6137245 L29.5,31.1643367 L29.5,6.94239796 L29.5,0.0491326531 Z" id="Path" fill="#9EE2F8"></path>
                        <g id="Group" transform="translate(37.492188, 9.002551)" fill="#FFFFFF">
                            <polygon id="Path" points="0.061765625 11.8246429 3.5215625 11.8246429 3.5215625 15.2685204 0.061765625 15.2685204"></polygon>
                            <polygon id="Path" points="11.0279141 11.8246429 14.4877109 11.8246429 14.4877109 15.2685204 11.0279141 15.2685204"></polygon>
                            <polygon id="Path" points="0.061765625 0.931377551 3.5215625 0.931377551 3.5215625 4.3752551 0.061765625 4.3752551"></polygon>
                            <polygon id="Path" points="11.0279141 0.931377551 14.4877109 0.931377551 14.4877109 4.3752551 11.0279141 4.3752551"></polygon>
                        </g>
                        <polygon id="Path" fill="#4BC3EB" points="5.64257812 29.7204592 24.0429688 29.7204592 24.0429688 20.7753061 22.8897031 19.0331633 24.0429688 17.3314286 24.0429688 6.38627551 5.64257812 6.38627551 5.64257812 17.3314286 6.79584375 19.0331633 5.64257812 20.7753061"></polygon>
                        <polygon id="Path" fill="#FFF5F5" points="16.6663594 24.198176 12.0417734 18.9611862 10.2994297 20.7753061 5.64257812 20.7753061 5.64257812 17.3314286 8.82258594 17.3314286 12.1487109 13.8682653 16.7429902 19.0709311 18.3737871 17.3314286 24.0429687 17.3314286 24.0429687 20.7753061 19.875291 20.7753061"></polygon>
                    </g>
                </g>
            </g>
        </g>
    </g>
</svg>