<?xml version="1.0" encoding="UTF-8"?>
<svg width="53px" height="53px" viewBox="0 0 53 53" version="1.1" xmlns="http://www.w3.org/2000/svg" xmlns:xlink="http://www.w3.org/1999/xlink">
    <!-- Generator: sketchtool 64 (101010) - https://sketch.com -->
    <title>B8E620B1-9614-4866-8A47-41F88E757476</title>
    <desc>Created with sketchtool.</desc>
    <g id="1200" stroke="none" stroke-width="1" fill="none" fill-rule="evenodd">
        <g id="01_Home_1200-3" transform="translate(-581.000000, -2830.000000)" fill-rule="nonzero">
            <g id="3-(Our-Services)" transform="translate(215.000000, 2030.000000)">
                <g id="5" transform="translate(366.000000, 800.000000)">
                    <g id="icon-Equipment-&amp;-Home-modifications">
                        <polygon id="Path" fill="#FFEAEA" transform="translate(28.984198, 24.010589) rotate(-45.000000) translate(-28.984198, -24.010589) " points="23.5691822 22.4580892 34.3992144 22.4580892 34.3992144 25.563089 23.5691822 25.563089"></polygon>
                        <path d="M0.616228516,52.3837715 L23.6952441,26.3745391 L29.9209844,29.6700625 L38.8418574,38.5909355 C19.99425,57.43875 0.616849609,52.3839785 0.616228516,52.3837715 Z" id="Path" fill="#FFEAEA"></path>
                        <path d="M0.616228516,52.3837715 C0.616228516,52.3837715 -4.43895703,33.0060605 14.4089609,14.1580391 L23.329834,23.0789121 L25.1603008,27.8395957 L0.616228516,52.3837715 Z" id="Path" fill="#FFF5F5"></path>
                        <polygon id="Path" fill="#EE8E64" points="31.3544687 21.6456348 36.083373 13.9864102 39.3788965 20.2122539 34.6499922 24.9411582"></polygon>
                        <path d="M22.9705313,36.6206191 C21.150416,38.4407344 18.1994961,38.4407344 16.3793809,36.6206191 L20.0373125,30.0324707 L26.6254609,26.3745391 L29.9209844,29.6700625 L22.9705313,36.6206191 Z" id="Path" fill="#F4D0D0"></path>
                        <path d="M16.3793809,36.6206191 C14.5592656,34.8005039 14.5592656,31.849584 16.3793809,30.0294687 L23.3299375,23.0789121 L26.6255645,26.3745391 L16.3793809,36.6206191 Z" id="Path" fill="#FFEAEA"></path>
                        <polygon id="Path" fill="#FC9B71" points="31.3544687 21.6456348 28.0588418 18.3500078 32.7878496 13.6211035 37.5484297 15.4515703"></polygon>
                        <polygon id="Path" fill="#FC9B71" points="49.7044766 3.29552344 53 6.59115039 39.3788965 20.2122539 36.083373 16.916627 40.4776113 9.59217188"></polygon>
                        <polygon id="Path" fill="#FFAC88" transform="translate(41.240827, 8.461854) rotate(-45.000000) translate(-41.240827, -8.461854) " points="31.6107216 6.13191352 50.8709317 6.13191352 50.8709317 10.7917937 31.6107216 10.7917937"></polygon>
                    </g>
                </g>
            </g>
        </g>
    </g>
</svg>