<?xml version="1.0" encoding="UTF-8"?>
<svg width="46px" height="57px" viewBox="0 0 46 57" version="1.1" xmlns="http://www.w3.org/2000/svg" xmlns:xlink="http://www.w3.org/1999/xlink">
    <!-- Generator: sketchtool 64 (101010) - https://sketch.com -->
    <title>1B68007F-78D1-4FBE-9669-588C55499C65</title>
    <desc>Created with sketchtool.</desc>
    <g id="1200" stroke="none" stroke-width="1" fill="none" fill-rule="evenodd">
        <g id="01_Home_1200-3" transform="translate(-915.000000, -2830.000000)" fill-rule="nonzero">
            <g id="3-(Our-Services)" transform="translate(215.000000, 2030.000000)">
                <g id="6" transform="translate(700.000000, 800.000000)">
                    <g id="icon-Errands">
                        <polygon id="Path" fill="#5ECEF4" points="45.911649 10.6516523 20.7866923 8.42330859 23 57 45.911649 57"></polygon>
                        <polygon id="Path" fill="#9EE2F8" points="0.0883509615 10.6516523 0.0883509615 57 23 57 23 8.42330859"></polygon>
                        <polygon id="Path" fill="#DAEEF5" points="41.0773365 10.6516523 20.7866923 8.42330859 23 52.132957 41.0773365 52.132957"></polygon>
                        <polygon id="Path" fill="#FFFFFF" points="4.92266346 10.6516523 4.92266346 52.132957 23 52.132957 23 8.42330859"></polygon>
                        <path d="M14.3915865,26.6249004 C15.3076358,26.6249004 16.0502404,25.8822958 16.0502404,24.9662465 L16.0502404,22.9689961 L16.0502404,22.9689961 L18.0116647,22.9689961 C18.933937,22.9689961 19.6815865,22.2213466 19.6815865,21.2990742 C19.6815865,20.3768018 18.933937,19.6291523 18.0116647,19.6291523 L16.0502404,19.6291523 L16.0502404,19.6291523 L16.0502404,17.6319019 C16.0502404,16.7158527 15.3076358,15.973248 14.3915865,15.973248 C13.4755373,15.973248 12.7329327,16.7158527 12.7329327,17.6319019 L12.7329327,19.6291523 L12.7329327,19.6291523 L10.771619,19.6291523 C9.84934661,19.6291523 9.10169712,20.3768018 9.10169712,21.2990742 C9.10169712,22.2213466 9.84934661,22.9689961 10.771619,22.9689961 L12.7329327,22.9689961 L12.7329327,22.9689961 L12.7329327,24.9662465 C12.7329327,25.8822958 13.4755373,26.6249004 14.3915865,26.6249004 Z" id="Path" fill="#9EE2F8"></path>
                        <polygon id="Path" fill="#5ECEF4" points="26.5266298 23.171168 36.8983029 23.171168 36.8983029 26.5110117 26.5266298 26.5110117"></polygon>
                        <path d="M45.911649,3.55058789 L29.107274,3.55058789 C27.8876106,1.42867383 25.6101683,0 23,0 L20.7866923,6.34570312 L23,10.6516523 L45.911649,10.6516523 L45.911649,3.55058789 Z" id="Path" fill="#41BDE8"></path>
                        <path d="M16.892726,3.55058789 L0.0883509615,3.55058789 L0.0883509615,10.6516523 L23,10.6516523 L23,0 C20.3898317,0 18.1123894,1.42867383 16.892726,3.55058789 Z" id="Path" fill="#5ECEF4"></path>
                        <polygon id="Path" fill="#5ECEF4" points="36.8983029 33.6120762 36.8983029 30.2722324 23 30.2722324 21.8933462 31.9421543 23 33.6120762"></polygon>
                        <polygon id="Path" fill="#5ECEF4" points="36.8983029 40.713252 36.8983029 37.3734082 23 37.3734082 21.8933462 39.0433301 23 40.713252"></polygon>
                        <g id="Group" transform="translate(9.067308, 30.169922)" fill="#9EE2F8">
                            <polygon id="Path" points="0.0343894231 0.102310547 13.9326923 0.102310547 13.9326923 3.4421543 0.0343894231 3.4421543"></polygon>
                            <polygon id="Path" points="0.0343894231 7.20348633 13.9326923 7.20348633 13.9326923 10.5433301 0.0343894231 10.5433301"></polygon>
                        </g>
                    </g>
                </g>
            </g>
        </g>
    </g>
</svg>