<?xml version="1.0" encoding="UTF-8"?>
<svg width="71px" height="39px" viewBox="0 0 71 39" version="1.1" xmlns="http://www.w3.org/2000/svg" xmlns:xlink="http://www.w3.org/1999/xlink">
    <!-- Generator: sketchtool 64 (101010) - https://sketch.com -->
    <title>8D1416E4-71A8-4F5E-B8FA-46AFAE204BDB</title>
    <desc>Created with sketchtool.</desc>
    <g id="1200" stroke="none" stroke-width="1" fill="none" fill-rule="evenodd">
        <g id="01_Home_1200-3" transform="translate(-581.000000, -3327.000000)" fill-rule="nonzero">
            <g id="3-(Our-Services)" transform="translate(215.000000, 2030.000000)">
                <g id="8" transform="translate(366.000000, 1297.000000)">
                    <g id="icon-Day-Trips">
                        <polygon id="Path" fill="#FFFFFF" points="50.4113867 16.8634607 3.67619141 16.8634607 9.60164063 2.16881786 40.7196094 2.16881786"></polygon>
                        <polygon id="Path" fill="#FFEEE7" points="50.4113867 16.8634607 35.5 16.8634607 35.5 2.16881786 40.7196094 2.16881786"></polygon>
                        <path d="M64.9331055,14.9315679 C62.1929492,13.7337107 59.4708203,13.6278536 59.3557227,13.6250679 L50.7705469,13.623675 L41.835918,0.0795321429 L8.19966797,0.0795321429 L2.73876953,13.623675 L0,13.623675 L0,31.2405321 L71,31.2405321 L71,23.812425 C71,19.7968179 68.8450391,16.6433893 64.9331055,14.9315679 Z M11.7843359,13.623675 L7.22757813,13.623675 L11.0036133,4.25810357 L15.5603711,4.25810357 L11.7843359,13.623675 Z M27.0798438,13.623675 L16.2731445,13.623675 L20.0491797,4.25810357 L27.0798438,4.25810357 L27.0798438,13.623675 Z M31.24,13.623675 L31.24,4.25810357 L39.6019141,4.25810357 L45.7797461,13.623675 L31.24,13.623675 Z" id="Shape" fill="#9EE2F8"></path>
                        <path d="M71,23.812425 L71,31.2405321 L35.5,31.2405321 L35.5,13.623675 L45.7797461,13.623675 L39.6019141,4.25810357 L35.5,4.25810357 L35.5,0.0795321429 L41.835918,0.0795321429 L50.7705469,13.623675 L59.3557227,13.6250679 C59.4708203,13.6278536 62.1929492,13.7337107 64.9331055,14.9315679 C68.8450391,16.6433893 71,19.7968179 71,23.812425 L71,23.812425 Z" id="Path" fill="#5ECEF4"></path>
                        <polygon id="Path" fill="#9EE2F8" points="50.7722109 13.6243714 54.9323672 13.6243714 54.9323672 31.1472107 50.7722109 31.1472107"></polygon>
                        <ellipse id="Oval" fill="#F7F7F7" cx="14.9432813" cy="30.5832429" rx="6.2204043" ry="6.24793929"></ellipse>
                        <path d="M14.9432812,38.9204679 C10.3662773,38.9204679 6.64266016,35.1803679 6.64266016,30.5833821 C6.64266016,25.9862571 10.3662773,22.2461571 14.9432812,22.2461571 C19.5201465,22.2461571 23.2437637,25.9862571 23.2437637,30.5833821 C23.2437637,35.1803679 19.5202852,38.9204679 14.9432812,38.9204679 Z M14.9432812,26.4245893 C12.6601875,26.4245893 10.8028164,28.2901821 10.8028164,30.5832429 C10.8028164,32.8763036 12.6601875,34.7417571 14.9432812,34.7417571 C17.2262363,34.7417571 19.0836074,32.8761643 19.0836074,30.5832429 C19.0836074,28.2901821 17.226375,26.4245893 14.9432812,26.4245893 L14.9432812,26.4245893 Z" id="Shape" fill="#4FC0E7"></path>
                        <ellipse id="Oval" fill="#FFFFFF" cx="56.6316523" cy="30.5832429" rx="6.2204043" ry="6.24793929"></ellipse>
                        <path d="M56.6316523,38.9204679 C52.0546484,38.9204679 48.3310312,35.1803679 48.3310312,30.5833821 C48.3310312,25.9862571 52.0546484,22.2461571 56.6316523,22.2461571 C61.2085176,22.2461571 64.9321348,25.9862571 64.9321348,30.5833821 C64.9321348,35.1803679 61.2086562,38.9204679 56.6316523,38.9204679 L56.6316523,38.9204679 Z M56.6316523,26.4245893 C54.3485586,26.4245893 52.4911875,28.2901821 52.4911875,30.5832429 C52.4911875,32.8763036 54.3485586,34.7417571 56.6316523,34.7417571 C58.9146074,34.7417571 60.7719785,32.8761643 60.7719785,30.5832429 C60.7719785,28.2901821 58.9147461,26.4245893 56.6316523,26.4245893 L56.6316523,26.4245893 Z" id="Shape" fill="#4FC0E7"></path>
                    </g>
                </g>
            </g>
        </g>
    </g>
</svg>