<?xml version="1.0" encoding="UTF-8"?>
<svg width="48px" height="57px" viewBox="0 0 48 57" version="1.1" xmlns="http://www.w3.org/2000/svg" xmlns:xlink="http://www.w3.org/1999/xlink">
    <!-- Generator: sketchtool 64 (101010) - https://sketch.com -->
    <title>939ACE52-15DA-4C3C-A964-2823F0DA12F2</title>
    <desc>Created with sketchtool.</desc>
    <g id="1200" stroke="none" stroke-width="1" fill="none" fill-rule="evenodd">
        <g id="01_Home_1200-3" transform="translate(-915.000000, -3327.000000)" fill-rule="nonzero">
            <g id="3-(Our-Services)" transform="translate(215.000000, 2030.000000)">
                <g id="9" transform="translate(700.000000, 1297.000000)">
                    <g id="icon-Personal-Care">
                        <path d="M40.8970141,16.694877 L24,0 L21.7446761,31.0048828 L24,57 C30.115493,57 36.2310986,54.6949512 40.8970141,50.0847422 C50.2290704,40.8644355 50.2290704,25.9152949 40.8970141,16.694877 Z" id="Path" fill="#FC9B71"></path>
                        <path d="M7.10298592,16.694877 C-2.22895775,25.9151836 -2.22895775,40.8643242 7.10298592,50.0846309 C11.7690141,54.6949512 17.884507,57 24,57 L24,0 L7.10298592,16.694877 Z" id="Path" fill="#FFAC88"></path>
                        <g id="Group-6" transform="translate(16.000000, 25.000000)">
                            <path d="M8,0.5 L8,0.5 L8,0.5 L8,15.5 C6.8954305,15.5 6,14.6045695 6,13.5 L6,2.5 C6,1.3954305 6.8954305,0.5 8,0.5 Z" id="Rectangle" fill="#FFFFFF"></path>
                            <path d="M8,0.5 C9.1045695,0.5 10,1.3954305 10,2.5 L10,13.5 C10,14.6045695 9.1045695,15.5 8,15.5 L8,15.5 L8,15.5 L8,0.5 Z" id="Rectangle-Copy-24" fill="#FFEBE2"></path>
                            <rect id="Rectangle-Copy-22" fill="#FFFFFF" transform="translate(8.000000, 8.000000) rotate(-270.000000) translate(-8.000000, -8.000000) " x="6" y="0" width="4" height="16" rx="2"></rect>
                            <path d="M12,4 C13.1045695,4 14,4.8954305 14,6 L14,12 L14,12 L10,12 L10,6 C10,4.8954305 10.8954305,4 12,4 Z" id="Rectangle-Copy-23" fill="#FFEBE2" transform="translate(12.000000, 8.000000) rotate(-270.000000) translate(-12.000000, -8.000000) "></path>
                        </g>
                    </g>
                </g>
            </g>
        </g>
    </g>
</svg>