<?xml version="1.0" encoding="UTF-8"?>
<svg width="14px" height="12px" viewBox="0 0 14 12" version="1.1" xmlns="http://www.w3.org/2000/svg" xmlns:xlink="http://www.w3.org/1999/xlink">
    <!-- Generator: Sketch 63.1 (92452) - https://sketch.com -->
    <title>twitter (2)</title>
    <desc>Created with Sketch.</desc>
    <g id="320" stroke="none" stroke-width="1" fill="none" fill-rule="evenodd">
        <g id="04_Blog_Detail_320" transform="translate(-188.000000, -2838.000000)" fill="#FFFFFF" fill-rule="nonzero">
            <g id="Share" transform="translate(139.000000, 2827.000000)">
                <g id="twitter-(2)" transform="translate(49.000000, 11.000000)">
                    <path d="M5.22297669,11.9726563 C4.61756898,11.9726563 3.99443054,11.9214286 3.36755371,11.81875 C2.263443,11.6377232 1.14576722,11.0342634 0.829498305,10.8535714 L0,10.3796875 L0.898071289,10.0710937 C1.87977601,9.73381697 2.47695924,9.52455357 3.21620179,9.196875 C2.47599792,8.82232143 1.90551758,8.14854911 1.63090514,7.27756697 L1.4219818,6.61484374 L1.59330749,6.64218749 C1.43084717,6.47109374 1.30256654,6.29743303 1.203125,6.13950891 C0.849472039,5.5782366 0.662231445,4.89241071 0.702072137,4.30468749 L0.741378777,3.72622769 L1.07281494,3.86037946 C0.932998664,3.5844866 0.831954949,3.28984374 0.772567742,2.9810268 C0.627838148,2.22790177 0.748962402,1.42779017 1.11372376,0.728125 L1.40243529,0.174330343 L1.78855895,0.658928571 C3.00973509,2.19174109 4.55647279,3.10100446 6.39224245,3.36718749 C6.31726074,2.82712054 6.37344362,2.30591517 6.55940247,1.83872769 C6.77590944,1.29475446 7.16107178,0.833482143 7.6729126,0.504687486 C8.24136354,0.139620543 8.9307251,-0.0372768 9.61399841,0.00658482857 C10.3389282,0.053125 10.9971008,0.336941971 11.5198364,0.827901771 C11.775116,0.758593743 11.9632111,0.684598229 12.2174225,0.584598229 C12.3703766,0.524441971 12.5438385,0.4561384 12.7608795,0.3780134 L13.5606842,0.0900669714 L13.0391235,1.64654017 C13.0735169,1.6435268 13.1089783,1.64095983 13.1460419,1.63928571 L14.0001068,1.59888394 L13.4953156,2.31975446 C13.4663696,2.36104911 13.4589996,2.37276786 13.4487457,2.38895089 C13.4080505,2.4530134 13.3574219,2.53270089 12.6645355,3.49944197 C12.4910736,3.74151786 12.4044495,4.05680803 12.420578,4.3873884 C12.4819946,5.6436384 12.3344879,6.78024554 11.9819031,7.7655134 C11.6484375,8.69765626 11.1316833,9.49743303 10.446167,10.1426339 C9.59786986,10.9408482 8.51618958,11.4873884 7.23103333,11.7668527 C6.60063171,11.9039063 5.92366029,11.9726563 5.22297669,11.9726563 Z" id="Path"></path>
                </g>
            </g>
        </g>
    </g>
</svg>