<?xml version="1.0" encoding="UTF-8"?>
<svg width="40px" height="40px" viewBox="0 0 40 40" version="1.1" xmlns="http://www.w3.org/2000/svg" xmlns:xlink="http://www.w3.org/1999/xlink">
    <!-- Generator: sketchtool 64 (101010) - https://sketch.com -->
    <title>69D91B4E-25F6-4066-B630-7EDB28E20015</title>
    <desc>Created with sketchtool.</desc>
    <g id="1200" stroke="none" stroke-width="1" fill="none" fill-rule="evenodd">
        <g id="01_Home_1200-3" transform="translate(-1045.000000, -7628.000000)">
            <g id="7-(FAQ)" transform="translate(144.000000, 7166.000000)">
                <g id="More" transform="translate(901.000000, 462.000000)">
                    <circle id="Oval-Copy" fill="#49C3EB" cx="20" cy="20" r="20"></circle>
                    <path d="M20,11 C21.1045695,11 22,11.8954305 22,13 L22,18 L27,18 C28.1045695,18 29,18.8954305 29,20 C29,21.1045695 28.1045695,22 27,22 L22,22 L22,27 C22,28.1045695 21.1045695,29 20,29 C18.8954305,29 18,28.1045695 18,27 L18,22 L13,22 C11.8954305,22 11,21.1045695 11,20 C11,18.8954305 11.8954305,18 13,18 L18,18 L18,13 C18,11.8954305 18.8954305,11 20,11 Z" id="plus" fill="#FFFFFF"></path>
                </g>
            </g>
        </g>
    </g>
</svg>